<mxfile host="app.diagrams.net" modified="2020-10-18T17:49:36.953Z" agent="5.0 (X11)" etag="mvuyW1vUbf-4yqShxLqZ" version="13.8.0" type="github">
  <diagram id="zz4J_zeyeDPSYXP4pqU5" name="Page-1">
    <mxGraphModel dx="1350" dy="711" grid="1" gridSize="10" guides="1" tooltips="1" connect="1" arrows="1" fold="1" page="1" pageScale="1" pageWidth="827" pageHeight="1169" math="0" shadow="0">
      <root>
        <mxCell id="0" />
        <mxCell id="1" parent="0" />
        <mxCell id="GnammL_zW7rf_ZhL0HVK-3" style="edgeStyle=orthogonalEdgeStyle;rounded=0;orthogonalLoop=1;jettySize=auto;html=1;exitX=0.5;exitY=1;exitDx=0;exitDy=0;entryX=0.5;entryY=0;entryDx=0;entryDy=0;" parent="1" source="GnammL_zW7rf_ZhL0HVK-1" target="GnammL_zW7rf_ZhL0HVK-2" edge="1">
          <mxGeometry relative="1" as="geometry">
            <Array as="points">
              <mxPoint x="400" y="210" />
              <mxPoint x="400" y="210" />
            </Array>
          </mxGeometry>
        </mxCell>
        <mxCell id="GnammL_zW7rf_ZhL0HVK-1" value="&lt;div style=&quot;font-size: 17px&quot;&gt;&lt;font style=&quot;font-size: 17px&quot;&gt;START&lt;/font&gt;&lt;/div&gt;" style="rounded=0;whiteSpace=wrap;html=1;" parent="1" vertex="1">
          <mxGeometry x="340" y="70" width="120" height="60" as="geometry" />
        </mxCell>
        <mxCell id="GnammL_zW7rf_ZhL0HVK-4" style="edgeStyle=orthogonalEdgeStyle;rounded=0;orthogonalLoop=1;jettySize=auto;html=1;fontSize=14;entryX=0.5;entryY=0;entryDx=0;entryDy=0;" parent="1" source="GnammL_zW7rf_ZhL0HVK-2" target="GnammL_zW7rf_ZhL0HVK-7" edge="1">
          <mxGeometry relative="1" as="geometry">
            <mxPoint x="400" y="330" as="targetPoint" />
          </mxGeometry>
        </mxCell>
        <mxCell id="GnammL_zW7rf_ZhL0HVK-6" value="&lt;div&gt;大きい場合&lt;/div&gt;&lt;div&gt;(True)&lt;br&gt;&lt;/div&gt;" style="edgeLabel;html=1;align=center;verticalAlign=middle;resizable=0;points=[];fontSize=14;" parent="GnammL_zW7rf_ZhL0HVK-4" vertex="1" connectable="0">
          <mxGeometry x="-0.2" y="-2" relative="1" as="geometry">
            <mxPoint as="offset" />
          </mxGeometry>
        </mxCell>
        <mxCell id="GnammL_zW7rf_ZhL0HVK-9" style="edgeStyle=orthogonalEdgeStyle;rounded=0;orthogonalLoop=1;jettySize=auto;html=1;entryX=0;entryY=0.5;entryDx=0;entryDy=0;fontSize=14;" parent="1" source="GnammL_zW7rf_ZhL0HVK-2" target="GnammL_zW7rf_ZhL0HVK-8" edge="1">
          <mxGeometry relative="1" as="geometry" />
        </mxCell>
        <mxCell id="GnammL_zW7rf_ZhL0HVK-10" value="&lt;div&gt;&lt;font style=&quot;font-size: 17px&quot;&gt;小さい場合&lt;/font&gt;&lt;/div&gt;&lt;div&gt;&lt;font style=&quot;font-size: 17px&quot;&gt;(false)&lt;br&gt;&lt;/font&gt;&lt;/div&gt;" style="edgeLabel;html=1;align=center;verticalAlign=middle;resizable=0;points=[];fontSize=14;" parent="GnammL_zW7rf_ZhL0HVK-9" vertex="1" connectable="0">
          <mxGeometry x="-0.25" y="-3" relative="1" as="geometry">
            <mxPoint x="15" y="-3" as="offset" />
          </mxGeometry>
        </mxCell>
        <mxCell id="GnammL_zW7rf_ZhL0HVK-2" value="隣との数値を比較" style="rounded=0;whiteSpace=wrap;html=1;fontSize=14;" parent="1" vertex="1">
          <mxGeometry x="340" y="200" width="120" height="60" as="geometry" />
        </mxCell>
        <mxCell id="qVZdqZ5SIJGl7KjkLreE-2" style="edgeStyle=orthogonalEdgeStyle;rounded=0;orthogonalLoop=1;jettySize=auto;html=1;entryX=0.5;entryY=0;entryDx=0;entryDy=0;" edge="1" parent="1" source="GnammL_zW7rf_ZhL0HVK-7" target="qVZdqZ5SIJGl7KjkLreE-1">
          <mxGeometry relative="1" as="geometry" />
        </mxCell>
        <mxCell id="GnammL_zW7rf_ZhL0HVK-7" value="&lt;font style=&quot;font-size: 13px&quot;&gt;一時的な変数に格納&lt;/font&gt;" style="rounded=0;whiteSpace=wrap;html=1;fontSize=14;" parent="1" vertex="1">
          <mxGeometry x="340" y="320" width="120" height="60" as="geometry" />
        </mxCell>
        <mxCell id="27N5OFfCC09W6TffT3J2-8" style="edgeStyle=orthogonalEdgeStyle;rounded=0;orthogonalLoop=1;jettySize=auto;html=1;entryX=0.5;entryY=0;entryDx=0;entryDy=0;" parent="1" source="GnammL_zW7rf_ZhL0HVK-8" target="GnammL_zW7rf_ZhL0HVK-13" edge="1">
          <mxGeometry relative="1" as="geometry" />
        </mxCell>
        <mxCell id="GnammL_zW7rf_ZhL0HVK-8" value="&lt;font style=&quot;font-size: 15px&quot;&gt;数値はそのままにする&lt;/font&gt;" style="rounded=0;whiteSpace=wrap;html=1;fontSize=14;" parent="1" vertex="1">
          <mxGeometry x="580" y="200" width="120" height="60" as="geometry" />
        </mxCell>
        <mxCell id="GnammL_zW7rf_ZhL0HVK-13" value="&lt;div style=&quot;font-size: 13px&quot;&gt;&lt;font style=&quot;font-size: 13px&quot;&gt;配列に格納されて&lt;/font&gt;&lt;/div&gt;&lt;div style=&quot;font-size: 13px&quot;&gt;&lt;font style=&quot;font-size: 13px&quot;&gt;いる個数分ループ&lt;br&gt;&lt;/font&gt;&lt;/div&gt;" style="rounded=0;whiteSpace=wrap;html=1;fontSize=14;" parent="1" vertex="1">
          <mxGeometry x="580" y="320" width="120" height="60" as="geometry" />
        </mxCell>
        <mxCell id="27N5OFfCC09W6TffT3J2-35" style="edgeStyle=orthogonalEdgeStyle;rounded=0;jumpStyle=arc;orthogonalLoop=1;jettySize=auto;html=1;strokeColor=#000000;" parent="1" edge="1">
          <mxGeometry relative="1" as="geometry">
            <mxPoint x="400" y="170" as="targetPoint" />
            <mxPoint x="760" y="170" as="sourcePoint" />
          </mxGeometry>
        </mxCell>
        <mxCell id="27N5OFfCC09W6TffT3J2-33" style="edgeStyle=orthogonalEdgeStyle;jumpStyle=arc;orthogonalLoop=1;jettySize=auto;html=1;strokeColor=#000000;verticalAlign=bottom;horizontal=0;fontStyle=0;align=right;labelBackgroundColor=#ffffff;rounded=0;endArrow=none;endFill=0;" parent="1" source="GnammL_zW7rf_ZhL0HVK-13" edge="1">
          <mxGeometry relative="1" as="geometry">
            <mxPoint x="760" y="170" as="targetPoint" />
          </mxGeometry>
        </mxCell>
        <mxCell id="qVZdqZ5SIJGl7KjkLreE-3" style="edgeStyle=orthogonalEdgeStyle;rounded=0;orthogonalLoop=1;jettySize=auto;html=1;entryX=0.5;entryY=1;entryDx=0;entryDy=0;" edge="1" parent="1" source="qVZdqZ5SIJGl7KjkLreE-1" target="GnammL_zW7rf_ZhL0HVK-13">
          <mxGeometry relative="1" as="geometry" />
        </mxCell>
        <mxCell id="qVZdqZ5SIJGl7KjkLreE-5" style="edgeStyle=orthogonalEdgeStyle;rounded=0;orthogonalLoop=1;jettySize=auto;html=1;entryX=0.5;entryY=0;entryDx=0;entryDy=0;" edge="1" parent="1" source="qVZdqZ5SIJGl7KjkLreE-1" target="qVZdqZ5SIJGl7KjkLreE-4">
          <mxGeometry relative="1" as="geometry" />
        </mxCell>
        <mxCell id="qVZdqZ5SIJGl7KjkLreE-1" value="&lt;font style=&quot;font-size: 14px&quot;&gt;入れ替え&lt;/font&gt;" style="rounded=0;whiteSpace=wrap;html=1;" vertex="1" parent="1">
          <mxGeometry x="340" y="420" width="120" height="60" as="geometry" />
        </mxCell>
        <mxCell id="qVZdqZ5SIJGl7KjkLreE-6" style="edgeStyle=orthogonalEdgeStyle;rounded=0;orthogonalLoop=1;jettySize=auto;html=1;" edge="1" parent="1" source="qVZdqZ5SIJGl7KjkLreE-4">
          <mxGeometry relative="1" as="geometry">
            <mxPoint x="400" y="670" as="targetPoint" />
          </mxGeometry>
        </mxCell>
        <mxCell id="qVZdqZ5SIJGl7KjkLreE-4" value="&lt;font style=&quot;font-size: 18px&quot;&gt;出力&lt;/font&gt;" style="rounded=0;whiteSpace=wrap;html=1;" vertex="1" parent="1">
          <mxGeometry x="340" y="540" width="120" height="60" as="geometry" />
        </mxCell>
        <mxCell id="qVZdqZ5SIJGl7KjkLreE-7" value="&lt;font style=&quot;font-size: 22px&quot;&gt;END&lt;/font&gt;" style="rounded=0;whiteSpace=wrap;html=1;" vertex="1" parent="1">
          <mxGeometry x="340" y="670" width="120" height="60" as="geometry" />
        </mxCell>
      </root>
    </mxGraphModel>
  </diagram>
</mxfile>
